<svg width="154" height="41" viewBox="0 0 154 41" fill="none" xmlns="http://www.w3.org/2000/svg">
<path d="M1.21049 21.2531C7.82768 22.0705 12.2512 25.3084 15.1201 29.0743C17.8546 32.6636 19.1792 36.7394 19.6032 39.657H1.21049V21.2531ZM15.1201 11.7509C12.2512 15.5167 7.82768 18.7546 1.21049 19.572V1.16811H19.6032C19.1792 4.08577 17.8546 8.16158 15.1201 11.7509Z" fill="#23449B" stroke="#23449B" stroke-width="1.51107"/>
<path d="M25.1073 30.4126V10.0489H29.4127V19.0276H29.6812L37.0093 10.0489H42.1698L34.613 19.1668L42.2593 30.4126H37.1087L31.5306 22.0404L29.4127 24.6256V30.4126H25.1073ZM49.5519 30.7109C48.0074 30.7109 46.6717 30.3827 45.5448 29.7265C44.4245 29.0636 43.5595 28.1422 42.9496 26.9623C42.3398 25.7757 42.0349 24.4003 42.0349 22.8359C42.0349 21.2582 42.3398 19.8794 42.9496 18.6995C43.5595 17.513 44.4245 16.5916 45.5448 15.9353C46.6717 15.2724 48.0074 14.941 49.5519 14.941C51.0964 14.941 52.4288 15.2724 53.5491 15.9353C54.676 16.5916 55.5443 17.513 56.1542 18.6995C56.764 19.8794 57.069 21.2582 57.069 22.8359C57.069 24.4003 56.764 25.7757 56.1542 26.9623C55.5443 28.1422 54.676 29.0636 53.5491 29.7265C52.4288 30.3827 51.0964 30.7109 49.5519 30.7109ZM49.5718 27.4296C50.2744 27.4296 50.8611 27.2308 51.3317 26.833C51.8024 26.4287 52.157 25.8785 52.3957 25.1825C52.6409 24.4864 52.7636 23.6943 52.7636 22.806C52.7636 21.9178 52.6409 21.1256 52.3957 20.4296C52.157 19.7336 51.8024 19.1834 51.3317 18.7791C50.8611 18.3747 50.2744 18.1725 49.5718 18.1725C48.8625 18.1725 48.2659 18.3747 47.782 18.7791C47.3047 19.1834 46.9435 19.7336 46.6982 20.4296C46.4596 21.1256 46.3403 21.9178 46.3403 22.806C46.3403 23.6943 46.4596 24.4864 46.6982 25.1825C46.9435 25.8785 47.3047 26.4287 47.782 26.833C48.2659 27.2308 48.8625 27.4296 49.5718 27.4296ZM63.499 10.0489V30.4126H59.2632V10.0489H63.499ZM70.5679 10.0489V30.4126H66.3321V10.0489H70.5679ZM80.3613 30.7109C78.7902 30.7109 77.438 30.3927 76.3044 29.7563C75.1775 29.1133 74.3092 28.2052 73.6993 27.0319C73.0895 25.852 72.7845 24.4566 72.7845 22.8458C72.7845 21.2748 73.0895 19.896 73.6993 18.7095C74.3092 17.5229 75.1676 16.5982 76.2746 15.9353C77.3882 15.2724 78.6941 14.941 80.1922 14.941C81.1998 14.941 82.1378 15.1034 83.0061 15.4282C83.8811 15.7464 84.6434 16.227 85.2931 16.87C85.9493 17.513 86.4597 18.3217 86.8243 19.2961C87.1889 20.2639 87.3712 21.3974 87.3712 22.6967V23.86H74.4749V21.235H83.384C83.384 20.6252 83.2514 20.0849 82.9863 19.6143C82.7211 19.1436 82.3532 18.7757 81.8826 18.5106C81.4185 18.2388 80.8783 18.1029 80.2618 18.1029C79.6188 18.1029 79.0488 18.2521 78.5516 18.5504C78.0611 18.842 77.6766 19.2364 77.3982 19.7336C77.1198 20.2241 76.9773 20.771 76.9706 21.3742V23.87C76.9706 24.6256 77.1098 25.2786 77.3882 25.8288C77.6733 26.379 78.0743 26.8032 78.5914 27.1015C79.1084 27.3998 79.7216 27.5489 80.4309 27.5489C80.9015 27.5489 81.3324 27.4827 81.7235 27.3501C82.1146 27.2175 82.4493 27.0186 82.7277 26.7535C83.0061 26.4883 83.2183 26.1635 83.3641 25.7791L87.2817 26.0376C87.0828 26.9789 86.6752 27.8008 86.0587 28.5035C85.4488 29.1995 84.66 29.7431 83.6922 30.1342C82.731 30.5186 81.6207 30.7109 80.3613 30.7109ZM93.4135 26.0177L93.4234 20.9367H94.0399L98.9319 15.1399H103.794L97.2217 22.816H96.2174L93.4135 26.0177ZM89.5754 30.4126V10.0489H93.8112V30.4126H89.5754ZM99.1209 30.4126L94.6265 23.7606L97.4504 20.7677L104.082 30.4126H99.1209ZM113.716 15.1399V18.3217H104.518V15.1399H113.716ZM106.606 11.4808H110.842V25.7194C110.842 26.1105 110.902 26.4154 111.021 26.6342C111.141 26.8463 111.306 26.9954 111.518 27.0816C111.737 27.1678 111.989 27.2109 112.274 27.2109C112.473 27.2109 112.672 27.1943 112.871 27.1612C113.07 27.1214 113.222 27.0916 113.328 27.0717L113.994 30.2237C113.782 30.2899 113.484 30.3662 113.099 30.4524C112.715 30.5452 112.248 30.6015 111.697 30.6214C110.677 30.6612 109.782 30.5253 109.013 30.2137C108.25 29.9022 107.657 29.4183 107.233 28.762C106.809 28.1058 106.6 27.2772 106.606 26.2762V11.4808ZM115.915 30.4126V15.1399H120.151V30.4126H115.915ZM118.043 13.1711C117.413 13.1711 116.873 12.9623 116.422 12.5447C115.978 12.1204 115.756 11.6133 115.756 11.0234C115.756 10.44 115.978 9.93957 116.422 9.52195C116.873 9.09771 117.413 8.88559 118.043 8.88559C118.673 8.88559 119.21 9.09771 119.654 9.52195C120.104 9.93957 120.33 10.44 120.33 11.0234C120.33 11.6133 120.104 12.1204 119.654 12.5447C119.21 12.9623 118.673 13.1711 118.043 13.1711ZM137.223 15.1399L131.883 30.4126H127.11L121.771 15.1399H126.245L129.417 26.0674H129.576L132.738 15.1399H137.223ZM142.775 30.7009C141.801 30.7009 140.932 30.5319 140.17 30.1938C139.408 29.8491 138.805 29.342 138.36 28.6725C137.923 27.9964 137.704 27.1545 137.704 26.147C137.704 25.2985 137.86 24.5859 138.172 24.0092C138.483 23.4325 138.907 22.9684 139.444 22.6171C139.981 22.2658 140.591 22.0006 141.274 21.8217C141.963 21.6427 142.686 21.5167 143.441 21.4438C144.33 21.351 145.046 21.2649 145.589 21.1853C146.133 21.0991 146.527 20.9732 146.772 20.8075C147.018 20.6417 147.14 20.3965 147.14 20.0717V20.012C147.14 19.3823 146.941 18.8951 146.544 18.5504C146.153 18.2057 145.596 18.0333 144.873 18.0333C144.111 18.0333 143.504 18.2024 143.054 18.5404C142.603 18.8719 142.305 19.2895 142.159 19.7933L138.241 19.4751C138.44 18.547 138.831 17.745 139.414 17.0688C139.998 16.3861 140.75 15.8624 141.672 15.4978C142.6 15.1266 143.673 14.941 144.893 14.941C145.742 14.941 146.554 15.0404 147.329 15.2393C148.111 15.4381 148.804 15.7464 149.407 16.164C150.017 16.5816 150.498 17.1185 150.849 17.7748C151.2 18.4244 151.376 19.2033 151.376 20.1114V30.4126H147.359V28.2947H147.24C146.994 28.772 146.666 29.1929 146.255 29.5575C145.844 29.9154 145.35 30.1971 144.774 30.4026C144.197 30.6015 143.531 30.7009 142.775 30.7009ZM143.988 27.7776C144.611 27.7776 145.162 27.655 145.639 27.4097C146.116 27.1578 146.491 26.8198 146.762 26.3955C147.034 25.9713 147.17 25.4907 147.17 24.9538V23.333C147.038 23.4192 146.855 23.4988 146.623 23.5717C146.398 23.638 146.143 23.7009 145.858 23.7606C145.573 23.8136 145.288 23.8633 145.002 23.9097C144.717 23.9495 144.459 23.986 144.227 24.0191C143.73 24.092 143.296 24.208 142.924 24.3671C142.553 24.5262 142.265 24.7417 142.059 25.0134C141.854 25.2786 141.751 25.61 141.751 26.0077C141.751 26.5845 141.96 27.0253 142.377 27.3302C142.802 27.6285 143.339 27.7776 143.988 27.7776Z" fill="#23449B"/>
</svg>
