<svg width="246" height="64" viewBox="0 0 246 64" fill="none" xmlns="http://www.w3.org/2000/svg">
<path fill-rule="evenodd" clip-rule="evenodd" d="M34.7191 0.626953H0V63.1213H34.7191C34.7191 40.2018 16.5533 32.874 4.93738 31.7096C25.4679 31.7168 33.3446 11.3449 34.7191 0.626953ZM189.59 24.4638V48.7592H196.328V24.4638H189.59ZM190.396 20.3354C191.113 20.9998 191.973 21.3319 192.975 21.3319C193.976 21.3319 194.83 20.9998 195.537 20.3354C196.254 19.6606 196.612 18.8539 196.612 17.9154C196.612 16.9874 196.254 16.1913 195.537 15.527C194.83 14.8521 193.976 14.5146 192.975 14.5146C191.973 14.5146 191.113 14.8521 190.396 15.527C189.69 16.1913 189.337 16.9874 189.337 17.9154C189.337 18.8539 189.69 19.6606 190.396 20.3354ZM45.135 16.3653V48.7592H51.9839V39.5535L55.353 35.441L64.2265 48.7592H72.4199L60.2564 30.8698L72.2776 16.3653H64.0684L52.411 30.6483H51.9839V16.3653H45.135ZM77.6465 47.6678C79.4391 48.7117 81.5639 49.2337 84.0208 49.2337C86.4778 49.2337 88.5973 48.7117 90.3794 47.6678C92.172 46.6133 93.5534 45.1476 94.5236 43.2706C95.4937 41.383 95.9788 39.195 95.9788 36.7064C95.9788 34.1967 95.4937 32.0034 94.5236 30.1264C93.5534 28.2388 92.172 26.7731 90.3794 25.7291C88.5973 24.6747 86.4778 24.1474 84.0208 24.1474C81.5639 24.1474 79.4391 24.6747 77.6465 25.7291C75.8644 26.7731 74.4883 28.2388 73.5181 30.1264C72.548 32.0034 72.0629 34.1967 72.0629 36.7064C72.0629 39.195 72.548 41.383 73.5181 43.2706C74.4883 45.1476 75.8644 46.6133 77.6465 47.6678ZM86.8521 43.065C86.1035 43.6976 85.1702 44.014 84.0525 44.014C82.9242 44.014 81.9751 43.6976 81.2054 43.065C80.4461 42.4217 79.8714 41.5465 79.4813 40.4393C79.1016 39.3321 78.9118 38.0719 78.9118 36.6589C78.9118 35.2459 79.1016 33.9858 79.4813 32.8786C79.8714 31.7714 80.4461 30.8961 81.2054 30.2529C81.9751 29.6097 82.9242 29.288 84.0525 29.288C85.1702 29.288 86.1035 29.6097 86.8521 30.2529C87.6008 30.8961 88.165 31.7714 88.5446 32.8786C88.9348 33.9858 89.1298 35.2459 89.1298 36.6589C89.1298 38.0719 88.9348 39.3321 88.5446 40.4393C88.165 41.5465 87.6008 42.4217 86.8521 43.065ZM106.208 16.3653V48.7592H99.4693V16.3653H106.208ZM117.453 48.7592V16.3653H110.714V48.7592H117.453ZM133.032 49.2337C130.532 49.2337 128.381 48.7276 126.578 47.7153C124.785 46.6924 123.404 45.2477 122.434 43.3813C121.464 41.5043 120.979 39.2846 120.979 36.7222C120.979 34.2231 121.464 32.0297 122.434 30.1422C123.404 28.2547 124.77 26.7836 126.531 25.7291C128.302 24.6747 130.379 24.1474 132.763 24.1474C134.365 24.1474 135.858 24.4058 137.239 24.9225C138.631 25.4286 139.844 26.1931 140.877 27.216C141.921 28.2388 142.733 29.5253 143.313 31.0754C143.893 32.615 144.183 34.4181 144.183 36.4849V38.3356H127.638V38.3514C127.638 39.5535 127.859 40.5922 128.302 41.4674C128.756 42.3426 129.394 43.0175 130.216 43.492C131.039 43.9665 132.014 44.2038 133.142 44.2038C133.891 44.2038 134.576 44.0984 135.198 43.8875C135.821 43.6766 136.353 43.3602 136.796 42.9384C137.239 42.5166 137.576 41.9999 137.808 41.3883L144.04 41.7996C143.724 43.2969 143.076 44.6045 142.095 45.7223C141.125 46.8295 139.87 47.6942 138.33 48.3163C136.801 48.9279 135.035 49.2337 133.032 49.2337ZM128.318 31.7714C127.909 32.4912 127.685 33.2874 127.644 34.1598H137.84C137.84 33.1897 137.629 32.3303 137.207 31.5816C136.785 30.8329 136.2 30.2476 135.452 29.8258C134.713 29.3935 133.854 29.1773 132.873 29.1773C131.85 29.1773 130.944 29.4146 130.153 29.8891C129.372 30.3531 128.761 30.9805 128.318 31.7714ZM154.427 41.0455V48.7592H147.689V16.3653H154.427V33.6853H154.791L162.573 24.4638H170.308L161.297 34.9878L170.767 48.7592H162.874L156.253 38.9604L154.427 41.0455ZM186.091 24.4638V29.5253H181.52V41.2934C181.52 41.9156 181.615 42.4006 181.805 42.7486C181.994 43.086 182.258 43.3233 182.595 43.4604C182.943 43.5975 183.344 43.666 183.798 43.666C184.114 43.666 184.43 43.6397 184.747 43.5869C185.063 43.5237 185.306 43.4762 185.474 43.4446L186.534 48.4587C186.197 48.5641 185.722 48.6854 185.11 48.8225C184.499 48.9701 183.755 49.0597 182.88 49.0914C181.256 49.1546 179.833 48.9385 178.61 48.4429C177.397 47.9472 176.453 47.1775 175.778 46.1335C175.103 45.0896 174.771 43.7715 174.782 42.1792V29.5253H171.46V24.4638H174.782V18.643H181.52V24.4638H186.091ZM223.485 24.4638L214.991 48.7592H207.399L198.905 24.4638H206.023L211.068 41.847H211.322L216.351 24.4638H223.485ZM228.174 48.4112C229.386 48.949 230.768 49.2179 232.318 49.2179C233.52 49.2179 234.58 49.0597 235.497 48.7434C236.415 48.4165 237.2 47.9683 237.854 47.3989C238.508 46.8189 239.03 46.1493 239.42 45.3901H239.61V48.7592H246V32.3724C246 30.9278 245.72 29.6888 245.162 28.6554C244.603 27.6114 243.838 26.7573 242.868 26.0929C241.909 25.4286 240.807 24.9383 239.562 24.6219C238.329 24.3056 237.037 24.1474 235.687 24.1474C233.747 24.1474 232.038 24.4427 230.562 25.0332C229.096 25.6132 227.9 26.4462 226.972 27.5323C226.044 28.6079 225.422 29.8838 225.105 31.3601L231.337 31.8663C231.569 31.0649 232.044 30.4005 232.761 29.8733C233.478 29.3355 234.443 29.0666 235.655 29.0666C236.805 29.0666 237.691 29.3408 238.313 29.8891C238.945 30.4374 239.262 31.2125 239.262 32.2143V32.3092C239.262 32.8259 239.067 33.216 238.676 33.4796C238.286 33.7433 237.659 33.9436 236.794 34.0807C235.93 34.2072 234.791 34.3443 233.378 34.492C232.176 34.6079 231.026 34.8083 229.93 35.093C228.843 35.3777 227.873 35.7995 227.019 36.3584C226.165 36.9173 225.49 37.6554 224.994 38.5728C224.499 39.4902 224.251 40.6238 224.251 41.9736C224.251 43.5764 224.599 44.9156 225.295 45.9912C226.002 47.0562 226.961 47.8629 228.174 48.4112ZM236.873 43.9824C236.114 44.3725 235.239 44.5676 234.248 44.5676C233.214 44.5676 232.36 44.3303 231.685 43.8558C231.021 43.3708 230.689 42.6695 230.689 41.7521C230.689 41.1194 230.852 40.5922 231.179 40.1704C231.506 39.738 231.965 39.3953 232.555 39.1423C233.146 38.8892 233.836 38.7046 234.627 38.5886C234.996 38.5359 235.408 38.4779 235.861 38.4147C236.314 38.3408 236.768 38.2618 237.221 38.1774C237.675 38.0825 238.081 37.9823 238.439 37.8769C238.808 37.7609 239.098 37.6343 239.309 37.4972V40.0755C239.309 40.9296 239.093 41.6941 238.661 42.369C238.228 43.0439 237.633 43.5817 236.873 43.9824Z" fill="#FCFCFC"/>
</svg>
