<svg width="24" height="24" viewBox="0 0 24 24" fill="none" xmlns="http://www.w3.org/2000/svg">
<path d="M20.1 11.1H17.247L19.533 8.814C19.6164 8.73074 19.6826 8.63184 19.7278 8.52296C19.773 8.41409 19.7962 8.29737 19.7962 8.1795C19.7962 8.06163 19.773 7.94491 19.7278 7.83604C19.6826 7.72716 19.6164 7.62826 19.533 7.545C19.182 7.194 18.606 7.194 18.255 7.545L14.7 11.1H12.9V9.3L16.455 5.745C16.806 5.394 16.806 4.818 16.455 4.467C16.3717 4.38357 16.2728 4.31737 16.164 4.27221C16.0551 4.22705 15.9384 4.2038 15.8205 4.2038C15.7026 4.2038 15.5859 4.22705 15.477 4.27221C15.3682 4.31737 15.2693 4.38357 15.186 4.467L12.9 6.753V3.9C12.9 3.405 12.495 3 12 3C11.505 3 11.1 3.405 11.1 3.9V6.753L8.814 4.467C8.73074 4.38357 8.63184 4.31737 8.52296 4.27221C8.41409 4.22705 8.29737 4.2038 8.1795 4.2038C8.06163 4.2038 7.94491 4.22705 7.83604 4.27221C7.72716 4.31737 7.62826 4.38357 7.545 4.467C7.194 4.818 7.194 5.394 7.545 5.745L11.1 9.3V11.1H9.3L5.745 7.545C5.394 7.194 4.818 7.194 4.467 7.545C4.38357 7.62826 4.31737 7.72716 4.27221 7.83604C4.22705 7.94491 4.2038 8.06163 4.2038 8.1795C4.2038 8.29737 4.22705 8.41409 4.27221 8.52296C4.31737 8.63184 4.38357 8.73074 4.467 8.814L6.753 11.1H3.9C3.405 11.1 3 11.505 3 12C3 12.495 3.405 12.9 3.9 12.9H6.753L4.467 15.186C4.38357 15.2693 4.31737 15.3682 4.27221 15.477C4.22705 15.5859 4.2038 15.7026 4.2038 15.8205C4.2038 15.9384 4.22705 16.0551 4.27221 16.164C4.31737 16.2728 4.38357 16.3717 4.467 16.455C4.818 16.806 5.394 16.806 5.745 16.455L9.3 12.9H11.1V14.7L7.545 18.255C7.194 18.606 7.194 19.182 7.545 19.533C7.896 19.884 8.463 19.884 8.814 19.533L11.1 17.247V20.1C11.1 20.595 11.505 21 12 21C12.495 21 12.9 20.595 12.9 20.1V17.247L15.186 19.533C15.537 19.884 16.104 19.884 16.455 19.533C16.806 19.182 16.806 18.606 16.455 18.255L12.9 14.7V12.9H14.7L18.255 16.455C18.606 16.806 19.182 16.806 19.533 16.455C19.6164 16.3717 19.6826 16.2728 19.7278 16.164C19.773 16.0551 19.7962 15.9384 19.7962 15.8205C19.7962 15.7026 19.773 15.5859 19.7278 15.477C19.6826 15.3682 19.6164 15.2693 19.533 15.186L17.247 12.9H20.1C20.595 12.9 21 12.495 21 12C21 11.505 20.595 11.1 20.1 11.1Z" fill="#23449B"/>
</svg>
