<svg width="24" height="24" viewBox="0 0 24 24" fill="none" xmlns="http://www.w3.org/2000/svg">
<path d="M11 4C11 3.44775 11.4478 3 12 3H18C18.5522 3 19 3.44775 19 4V13H20.5C20.7761 13 21 13.2239 21 13.5V17C21 18.3063 20.1652 19.4175 19 19.8293V20C19 20.5522 18.5522 21 18 21C17.4478 21 17 20.5522 17 20H7C7 20.5522 6.55225 21 6 21C5.44775 21 5 20.5522 5 20V19.8293C3.83484 19.4175 3 18.3063 3 17V13.5C3 13.2239 3.22388 13 3.5 13H17V5.5C17 5.22388 16.7761 5 16.5 5H13.5C13.2239 5 13 5.22388 13 5.5C13 5.77612 13.2239 6 13.5 6H14.5C14.7761 6 15 6.22388 15 6.5V7.5C15 7.77612 14.7761 8 14.5 8H9.5C9.22388 8 9 7.77612 9 7.5V6.5C9 6.22388 9.22388 6 9.5 6H10.5C10.7761 6 11 5.77612 11 5.5V4Z" fill="#23449B"/>
<path d="M11.5 10C11.5 10.2761 11.2761 10.5 11 10.5C10.7239 10.5 10.5 10.2761 10.5 10C10.5 9.72388 11 9 11 9C11 9 11.5 9.72388 11.5 10Z" fill="#23449B"/>
<path d="M13 11.5C13.2761 11.5 13.5 11.2761 13.5 11C13.5 10.7239 13 10 13 10C13 10 12.5 10.7239 12.5 11C12.5 11.2761 12.7239 11.5 13 11.5Z" fill="#23449B"/>
</svg>
