<svg width="24" height="24" viewBox="0 0 24 24" fill="none" xmlns="http://www.w3.org/2000/svg">
<path fill-rule="evenodd" clip-rule="evenodd" d="M7.49983 4.9607C7.00283 4.96504 6.60377 5.41629 6.60859 5.96852C6.61341 6.52074 7.02028 6.96496 7.51728 6.96062L8.93348 6.94826L7.33933 11.9624L3.96105 11.9918C3.46405 11.9962 3.06499 12.4474 3.06981 12.9997C3.07463 13.5519 3.4815 13.9961 3.9785 13.9918L6.70169 13.968L5.66038 17.2432C5.49496 17.7636 5.74078 18.3353 6.20944 18.5201C6.67821 18.705 7.19232 18.4329 7.35774 17.9124L8.61709 13.9513L15.5392 13.8909L16.8676 17.8295C17.0421 18.3469 17.5609 18.61 18.0263 18.4171C18.4917 18.224 18.7275 17.6481 18.553 17.1307L17.4547 13.8742L20.1779 13.8504C20.6749 13.8461 21.0739 13.3948 21.0691 12.8426C21.0643 12.2904 20.6574 11.8461 20.1604 11.8505L16.7822 11.88L15.1007 6.89444L16.5169 6.88209C17.0139 6.87775 17.413 6.42649 17.4082 5.87427C17.4034 5.32204 16.9965 4.87782 16.4995 4.88216L7.49983 4.9607ZM13.1852 6.91116L10.849 6.93155L9.25483 11.9457L14.8667 11.8967L13.1852 6.91116Z" fill="#23449B"/>
</svg>
