<svg width="24" height="24" viewBox="0 0 24 24" fill="none" xmlns="http://www.w3.org/2000/svg">
<path d="M6 3H18C18.5304 3 19.0391 3.21071 19.4142 3.58579C19.7893 3.96086 20 4.46957 20 5V19C20 19.5304 19.7893 20.0391 19.4142 20.4142C19.0391 20.7893 18.5304 21 18 21H6C5.46957 21 4.96086 20.7893 4.58579 20.4142C4.21071 20.0391 4 19.5304 4 19V5C4 4.46957 4.21071 3.96086 4.58579 3.58579C4.96086 3.21071 5.46957 3 6 3ZM6 4C5.73478 4 5.48043 4.10536 5.29289 4.29289C5.10536 4.48043 5 4.73478 5 5C5 5.26522 5.10536 5.51957 5.29289 5.70711C5.48043 5.89464 5.73478 6 6 6C6.26522 6 6.51957 5.89464 6.70711 5.70711C6.89464 5.51957 7 5.26522 7 5C7 4.73478 6.89464 4.48043 6.70711 4.29289C6.51957 4.10536 6.26522 4 6 4ZM9 4C8.73478 4 8.48043 4.10536 8.29289 4.29289C8.10536 4.48043 8 4.73478 8 5C8 5.26522 8.10536 5.51957 8.29289 5.70711C8.48043 5.89464 8.73478 6 9 6C9.26522 6 9.51957 5.89464 9.70711 5.70711C9.89464 5.51957 10 5.26522 10 5C10 4.73478 9.89464 4.48043 9.70711 4.29289C9.51957 4.10536 9.26522 4 9 4ZM12 7C10.4087 7 8.88258 7.63214 7.75736 8.75736C6.63214 9.88258 6 11.4087 6 13C6 14.5913 6.63214 16.1174 7.75736 17.2426C8.88258 18.3679 10.4087 19 12 19C13.5913 19 15.1174 18.3679 16.2426 17.2426C17.3679 16.1174 18 14.5913 18 13C18 11.4087 17.3679 9.88258 16.2426 8.75736C15.1174 7.63214 13.5913 7 12 7ZM8.04153 10.2928C8.05215 9.83585 8.44903 9.5 8.90609 9.5C9.47727 9.5 9.89147 10.0177 9.90964 10.5886C9.93344 11.3362 10.173 11.855 10.58 12.29C11.512 13.1966 11.9989 14.3042 11.9617 15.71C11.9496 16.1661 11.5527 16.5 11.0965 16.5C10.5239 16.5 10.1089 15.981 10.0903 15.4088C10.066 14.6626 9.82652 14.1446 9.42 13.71C8.48863 12.804 8.00891 11.6973 8.04153 10.2928ZM12.0415 10.2928C12.0521 9.83585 12.449 9.5 12.9061 9.5C13.4773 9.5 13.8915 10.0177 13.9096 10.5886C13.9334 11.3362 14.173 11.855 14.58 12.29C15.512 13.1966 15.9989 14.3042 15.9617 15.71C15.9496 16.1661 15.5527 16.5 15.0965 16.5C14.5239 16.5 14.1089 15.981 14.0903 15.4088C14.066 14.6626 13.8265 14.1446 13.42 13.71C12.4886 12.804 12.0089 11.6973 12.0415 10.2928Z" fill="#23449B"/>
</svg>
