<svg width="44" height="44" viewBox="0 0 44 44" fill="none" xmlns="http://www.w3.org/2000/svg">
<path fill-rule="evenodd" clip-rule="evenodd" d="M40 22C40 31.9411 31.9411 40 22 40C12.0589 40 4 31.9411 4 22C4 12.0589 12.0589 4 22 4C31.9411 4 40 12.0589 40 22ZM44 22C44 34.1503 34.1503 44 22 44C9.84974 44 0 34.1503 0 22C0 9.84974 9.84974 0 22 0C34.1503 0 44 9.84974 44 22ZM13.634 19.6455C13.8649 19.7415 14.0747 19.8822 14.2511 20.0594L19.7829 25.5911L30.1853 15.194C30.3522 15.0268 30.5504 14.8941 30.7687 14.8036C30.9869 14.7131 31.2209 14.6665 31.4571 14.6665C31.6934 14.6665 31.9274 14.7131 32.1456 14.8036C32.3638 14.8941 32.5621 15.0268 32.729 15.194L32.8771 15.3421C33.0443 15.509 33.177 15.7073 33.2675 15.9255C33.358 16.1438 33.4046 16.3777 33.4046 16.614C33.4046 16.8503 33.358 17.0842 33.2675 17.3024C33.177 17.5207 33.0443 17.7189 32.8771 17.8859L21.0574 29.7056C20.8905 29.8728 20.6922 30.0055 20.474 30.096C20.2557 30.1865 20.0218 30.2331 19.7855 30.2331C19.5492 30.2331 19.3153 30.1865 19.097 30.096C18.8788 30.0055 18.6805 29.8728 18.5136 29.7056L18.4026 29.5945L11.5593 22.7512C11.382 22.5748 11.2414 22.365 11.1454 22.1341C11.0494 21.9031 11 21.6554 11 21.4053C11 21.1552 11.0494 20.9076 11.1454 20.6766C11.2414 20.4456 11.382 20.2359 11.5593 20.0594C11.7358 19.8822 11.9455 19.7415 12.1765 19.6455C12.4074 19.5495 12.6551 19.5001 12.9052 19.5001C13.1553 19.5001 13.403 19.5495 13.634 19.6455Z" fill="#23449B"/>
</svg>
