<svg width="24" height="24" viewBox="0 0 24 24" fill="none" xmlns="http://www.w3.org/2000/svg">
<path d="M21 19.5C21 20.3284 20.3284 21 19.5 21H4.5C3.67157 21 3 20.3284 3 19.5C3 18.6716 3.67157 18 4.5 18H19.5C20.3284 18 21 18.6716 21 19.5ZM21 4.5C21 5.32843 20.3284 6 19.5 6H12H4.5C3.67157 6 3 5.32843 3 4.5C3 3.67157 3.67157 3 4.5 3H19.5C20.3284 3 21 3.67157 21 4.5ZM19 6V18H17V8.5C17 8.22386 16.7761 8 16.5 8H7.5C7.22386 8 7 8.22386 7 8.5V18H5V6H12H19ZM14.5 12.67H14.47L14.81 13.22L14.87 13.34C15.29 14.35 15 15.5 14.21 16.24C13.5 16.9 12.5 17.07 11.58 16.95C10.71 16.84 9.9 16.29 9.45 15.53C9.3 15.3 9.19 15.03 9.13 14.77L9 14.11C8.96 13.15 9.34 12.14 10.06 11.54C9.73 12.26 9.81 13.16 10.3 13.79L10.36 13.87C10.44 13.94 10.55 13.97 10.64 13.92C10.73 13.89 10.8 13.8 10.8 13.7L10.76 13.56C10.23 12.17 10.68 10.55 11.79 9.63C12.1 9.38 12.5 9.15 12.87 9.05C12.46 9.87 12.61 10.93 13.25 11.57L14.14 12.3L14.5 12.67ZM13.11 15.44C13.37 15.2 13.53 14.8 13.5 14.44V14.25C13.38 13.65 12.85 13.46 12.5 13L12.26 12.55C12.13 12.85 12.12 13.13 12.17 13.46C12.23 13.8 12.37 14.09 12.29 14.44C12.2 14.83 11.9 15.22 11.37 15.35C11.67 15.64 12.15 15.87 12.64 15.71L13.11 15.44Z" fill="#23449B"/>
</svg>
