<svg width="24" height="24" viewBox="0 0 24 24" fill="none" xmlns="http://www.w3.org/2000/svg">
<path fill-rule="evenodd" clip-rule="evenodd" d="M12.3714 2.14856C12.133 2.05319 11.867 2.05319 11.6286 2.14856L2.62861 5.74856C2.24895 5.90042 2 6.26813 2 6.67703V21C2 21.5523 2.44772 22 3 22H21C21.5523 22 22 21.5523 22 21V6.67703C22 6.26813 21.751 5.90042 21.3714 5.74856L12.3714 2.14856ZM20 7.3465C20 7.13808 19.8707 6.95152 19.6756 6.87834L12.1756 4.06584C12.0624 4.02339 11.9376 4.02339 11.8244 4.06584L4.32444 6.87834C4.12929 6.95152 4 7.13808 4 7.3465V20H6V8.5C6 8.22386 6.22386 8 6.5 8H17.5C17.7761 8 18 8.22386 18 8.5V20H20V7.3465ZM8 12V10H16V12H8ZM8 14V16H16V14H8ZM8 20V18H16V20H8Z" fill="#23449B"/>
</svg>
