<svg width="24" height="24" viewBox="0 0 24 24" fill="none" xmlns="http://www.w3.org/2000/svg">
<path fill-rule="evenodd" clip-rule="evenodd" d="M14.6644 6.19098C15.2092 6.28712 15.5772 6.83264 15.4864 7.40945L15.0411 10.238C15.0138 10.412 15 10.5881 15 10.7644V11.032C15 11.71 15.2544 12.3601 15.7071 12.8395C16.5349 13.716 17 14.9048 17 16.1444V16.412C17 16.705 16.9771 16.9975 16.9316 17.2865L16.4864 20.1151C16.3956 20.6919 15.8804 21.0816 15.3356 20.9854C14.7908 20.8893 14.4228 20.3438 14.5136 19.767L14.9589 16.9384C14.9862 16.7644 15 16.5883 15 16.412V16.1444C15 15.4664 14.7456 14.8163 14.2929 14.3369C13.4651 13.4604 13 12.2716 13 11.032V10.7644C13 10.4714 13.0229 10.1789 13.0684 9.88988L13.5136 7.06132C13.6044 6.48451 14.1196 6.09485 14.6644 6.19098Z" fill="#23449B"/>
<path fill-rule="evenodd" clip-rule="evenodd" d="M8.6644 3.01457C9.20917 3.11071 9.57719 3.65623 9.48639 4.23304L9.04115 7.0616C9.01376 7.23558 9 7.41165 9 7.58803V7.85561C9 8.53356 9.25435 9.18373 9.70711 9.66311C10.5349 10.5396 11 11.7284 11 12.968V13.2356C11 13.5286 10.9771 13.8211 10.9316 14.1101L10.4864 16.9387C10.3956 17.5155 9.88037 17.9052 9.3356 17.809C8.79083 17.7129 8.42281 17.1674 8.51361 16.5906L8.95885 13.762C8.98624 13.588 9 13.4119 9 13.2356V12.968C9 12.29 8.74565 11.6399 8.29289 11.1605C7.46507 10.284 7 9.09518 7 7.85561V7.58803C7 7.29501 7.02286 7.0025 7.06836 6.71346L7.51361 3.8849C7.6044 3.3081 8.11963 2.91844 8.6644 3.01457Z" fill="#23449B"/>
</svg>
