<svg width="40" height="40" viewBox="0 0 40 40" fill="none" xmlns="http://www.w3.org/2000/svg">
<path fill-rule="evenodd" clip-rule="evenodd" d="M20.5896 0.109159C20.7766 0.181002 20.9463 0.286673 21.0892 0.419547L29.2308 7.98221V4.28789C29.2308 3.90915 29.3928 3.54575 29.6814 3.27791C29.9699 3.01007 30.3612 2.85941 30.7692 2.85941H33.8462C34.2542 2.85941 34.6455 3.01007 34.934 3.27791C35.2225 3.54575 35.3846 3.90915 35.3846 4.28789V13.6961L39.5508 17.5614C39.6935 17.6942 39.8068 17.8522 39.8837 18.0255C39.9608 18.1992 40.0004 18.3851 40 18.5727V38.5715C40 38.9506 39.8379 39.3137 39.5494 39.5818C39.2609 39.8497 38.8695 40 38.4615 40H24.6154C24.2074 40 23.816 39.8497 23.5275 39.5818C23.239 39.3137 23.0769 38.9506 23.0769 38.5715V27.1436H16.9231V38.5715C16.9231 38.9506 16.761 39.3137 16.4725 39.5818C16.184 39.8497 15.7926 40 15.3846 40H1.53846C1.13047 40 0.739091 39.8497 0.45063 39.5818C0.162074 39.3137 2.65155e-06 38.9506 2.65155e-06 38.5715V18.5727C-0.000372949 18.3851 0.039159 18.1992 0.116251 18.0255C0.157192 17.9335 0.208367 17.8456 0.268651 17.7636C0.321893 17.6914 0.382364 17.6238 0.449221 17.5614L18.9108 0.419547C19.0537 0.286673 19.2234 0.181002 19.4104 0.109159C19.5973 0.0369676 19.7976 0 20 0C20.2024 0 20.4027 0.0369676 20.5896 0.109159ZM20 24.2867V3.45089L36.9231 19.1642V37.143H26.1538V25.7152C26.1538 25.3364 25.9918 24.973 25.7032 24.7052C25.4148 24.4373 25.0234 24.2867 24.6154 24.2867H20Z" fill="#23449B"/>
</svg>
