<svg width="127" height="33" viewBox="0 0 127 33" fill="none" xmlns="http://www.w3.org/2000/svg">
<g opacity="0.85">
<path d="M23.7917 24.6603V8.0634H27.3008V15.3813H27.5196L33.4922 8.0634H37.6981L31.5391 15.4947L37.771 24.6603H33.5732L29.0269 17.8368L27.3008 19.9438V24.6603H23.7917Z" fill="#FCFCFC"/>
<path d="M43.7147 24.9034C42.4559 24.9034 41.3673 24.636 40.4488 24.1011C39.5358 23.5608 38.8307 22.8099 38.3337 21.8482C37.8367 20.8811 37.5881 19.7601 37.5881 18.4851C37.5881 17.1992 37.8367 16.0755 38.3337 15.1138C38.8307 14.1468 39.5358 13.3958 40.4488 12.8609C41.3673 12.3207 42.4559 12.0505 43.7147 12.0505C44.9735 12.0505 46.0595 12.3207 46.9725 12.8609C47.891 13.3958 48.5987 14.1468 49.0957 15.1138C49.5928 16.0755 49.8413 17.1992 49.8413 18.4851C49.8413 19.7601 49.5928 20.8811 49.0957 21.8482C48.5987 22.8099 47.891 23.5608 46.9725 24.1011C46.0595 24.636 44.9735 24.9034 43.7147 24.9034ZM43.7309 22.2291C44.3036 22.2291 44.7817 22.067 45.1653 21.7428C45.5489 21.4133 45.838 20.9649 46.0324 20.3976C46.2323 19.8303 46.3323 19.1847 46.3323 18.4608C46.3323 17.7368 46.2323 17.0912 46.0324 16.5239C45.838 15.9566 45.5489 15.5082 45.1653 15.1787C44.7817 14.8491 44.3036 14.6843 43.7309 14.6843C43.1528 14.6843 42.6666 14.8491 42.2722 15.1787C41.8832 15.5082 41.5888 15.9566 41.3889 16.5239C41.1944 17.0912 41.0971 17.7368 41.0971 18.4608C41.0971 19.1847 41.1944 19.8303 41.3889 20.3976C41.5888 20.9649 41.8832 21.4133 42.2722 21.7428C42.6666 22.067 43.1528 22.2291 43.7309 22.2291Z" fill="#FCFCFC"/>
<path d="M55.082 8.0634V24.6603H51.6297V8.0634H55.082Z" fill="#FCFCFC"/>
<path d="M60.8433 8.0634V24.6603H57.391V8.0634H60.8433Z" fill="#FCFCFC"/>
<path d="M68.8251 24.9034C67.5447 24.9034 66.4426 24.6441 65.5187 24.1254C64.6003 23.6014 63.8925 22.8612 63.3955 21.9049C62.8984 20.9433 62.6499 19.806 62.6499 18.4932C62.6499 17.2127 62.8984 16.089 63.3955 15.1219C63.8925 14.1549 64.5922 13.4012 65.4944 12.8609C66.402 12.3207 67.4663 12.0505 68.6873 12.0505C69.5085 12.0505 70.273 12.1829 70.9808 12.4476C71.6939 12.707 72.3152 13.0986 72.8447 13.6227C73.3795 14.1468 73.7955 14.8059 74.0927 15.6001C74.3898 16.3888 74.5384 17.3127 74.5384 18.3716V19.3198H64.0276V17.1803H71.2887C71.2887 16.6833 71.1807 16.243 70.9646 15.8594C70.7484 15.4758 70.4486 15.176 70.065 14.9598C69.6868 14.7383 69.2465 14.6276 68.7441 14.6276C68.22 14.6276 67.7554 14.7491 67.3502 14.9923C66.9504 15.23 66.637 15.5514 66.4101 15.9566C66.1832 16.3564 66.0671 16.8021 66.0617 17.2938V19.3279C66.0617 19.9438 66.1751 20.4759 66.402 20.9244C66.6343 21.3728 66.9612 21.7185 67.3826 21.9617C67.804 22.2048 68.3038 22.3263 68.8818 22.3263C69.2654 22.3263 69.6166 22.2723 69.9354 22.1643C70.2541 22.0562 70.5269 21.8941 70.7538 21.678C70.9808 21.4619 71.1536 21.1972 71.2725 20.8838L74.4655 21.0945C74.3034 21.8617 73.9711 22.5316 73.4687 23.1043C72.9716 23.6716 72.3287 24.1146 71.5399 24.4334C70.7565 24.7467 69.8516 24.9034 68.8251 24.9034Z" fill="#FCFCFC"/>
<path d="M79.463 21.0783L79.4711 16.9372H79.9735L83.9607 12.2126H87.9235L82.5668 18.4689H81.7483L79.463 21.0783ZM76.3349 24.6603V8.0634H79.7871V24.6603H76.3349ZM84.1147 24.6603L80.4517 19.2387L82.7532 16.7994L88.1585 24.6603H84.1147Z" fill="#FCFCFC"/>
<path d="M96.0099 12.2126V14.8059H88.5138V12.2126H96.0099ZM90.2156 9.23036H93.6679V20.8352C93.6679 21.154 93.7165 21.4025 93.8138 21.5808C93.911 21.7537 94.0461 21.8752 94.219 21.9454C94.3973 22.0157 94.6026 22.0508 94.8349 22.0508C94.997 22.0508 95.159 22.0373 95.3211 22.0103C95.4832 21.9779 95.6074 21.9536 95.6939 21.9373L96.2369 24.5063C96.064 24.5603 95.8209 24.6224 95.5075 24.6927C95.1941 24.7683 94.8133 24.8142 94.3648 24.8305C93.5328 24.8629 92.8035 24.7521 92.1768 24.4982C91.5555 24.2443 91.0719 23.8499 90.7262 23.315C90.3804 22.7802 90.2102 22.1048 90.2156 21.289V9.23036Z" fill="#FCFCFC"/>
<path d="M97.8024 24.6603V12.2126H101.255V24.6603H97.8024ZM99.5366 10.608C99.0234 10.608 98.583 10.4379 98.2157 10.0975C97.8537 9.75172 97.6727 9.33842 97.6727 8.85758C97.6727 8.38215 97.8537 7.97425 98.2157 7.63389C98.583 7.28812 99.0234 7.11523 99.5366 7.11523C100.05 7.11523 100.487 7.28812 100.849 7.63389C101.217 7.97425 101.401 8.38215 101.401 8.85758C101.401 9.33842 101.217 9.75172 100.849 10.0975C100.487 10.4379 100.05 10.608 99.5366 10.608Z" fill="#FCFCFC"/>
<path d="M115.169 12.2126L110.817 24.6603H106.927L102.575 12.2126H106.222L108.807 21.1188H108.937L111.514 12.2126H115.169Z" fill="#FCFCFC"/>
<path d="M119.694 24.8953C118.9 24.8953 118.192 24.7575 117.571 24.482C116.949 24.201 116.458 23.7877 116.096 23.2421C115.739 22.691 115.561 22.0049 115.561 21.1837C115.561 20.4921 115.688 19.9114 115.942 19.4413C116.196 18.9713 116.542 18.5931 116.979 18.3068C117.417 18.0204 117.914 17.8043 118.47 17.6585C119.032 17.5126 119.621 17.4099 120.237 17.3505C120.961 17.2749 121.544 17.2046 121.987 17.1398C122.43 17.0696 122.752 16.9669 122.952 16.8319C123.152 16.6968 123.252 16.4969 123.252 16.2322V16.1835C123.252 15.6703 123.09 15.2732 122.765 14.9923C122.447 14.7113 121.993 14.5709 121.404 14.5709C120.783 14.5709 120.288 14.7086 119.921 14.9842C119.554 15.2543 119.31 15.5947 119.192 16.0053L115.999 15.7459C116.161 14.9896 116.479 14.3358 116.955 13.7848C117.43 13.2283 118.044 12.8015 118.794 12.5044C119.551 12.2018 120.426 12.0505 121.42 12.0505C122.112 12.0505 122.774 12.1316 123.406 12.2937C124.043 12.4557 124.608 12.707 125.099 13.0473C125.596 13.3877 125.988 13.8253 126.274 14.3602C126.561 14.8896 126.704 15.5244 126.704 16.2646V24.6603H123.43V22.9341H123.333C123.133 23.3231 122.865 23.6662 122.53 23.9633C122.195 24.2551 121.793 24.4847 121.323 24.6522C120.853 24.8142 120.31 24.8953 119.694 24.8953ZM120.683 22.5127C121.191 22.5127 121.639 22.4128 122.028 22.2129C122.417 22.0076 122.722 21.732 122.944 21.3863C123.165 21.0405 123.276 20.6488 123.276 20.2112V18.8903C123.168 18.9605 123.019 19.0253 122.83 19.0848C122.647 19.1388 122.439 19.1901 122.206 19.2387C121.974 19.282 121.742 19.3225 121.509 19.3603C121.277 19.3927 121.066 19.4224 120.877 19.4494C120.472 19.5089 120.118 19.6034 119.816 19.7331C119.513 19.8627 119.278 20.0383 119.111 20.2598C118.943 20.4759 118.859 20.7461 118.859 21.0702C118.859 21.5403 119.03 21.8995 119.37 22.148C119.716 22.3912 120.153 22.5127 120.683 22.5127Z" fill="#FCFCFC"/>
<path d="M0 0H17.7882C17.0839 5.4913 13.0484 15.9287 2.52963 15.9251C8.481 16.5216 17.7882 20.276 17.7882 32.0187H0V0Z" fill="#FCFCFC"/>
</g>
</svg>
