<svg width="24" height="24" viewBox="0 0 24 24" fill="none" xmlns="http://www.w3.org/2000/svg">
<path d="M10.8445 12.2251H12.5447C13.0021 12.2251 13.3767 12.1456 13.6683 11.9865C13.96 11.8274 14.1754 11.6087 14.3146 11.3303C14.4572 11.0518 14.5284 10.732 14.5284 10.3707C14.5284 10.0095 14.4572 9.69129 14.3146 9.41619C14.1754 9.1411 13.9583 8.92732 13.6634 8.77486C13.3717 8.61908 12.9955 8.54119 12.5348 8.54119H10.8445V12.2251Z" fill="#23449B"/>
<path fill-rule="evenodd" clip-rule="evenodd" d="M5 3C3.89543 3 3 3.89543 3 5V19C3 20.1046 3.89543 21 5 21H19C20.1046 21 21 20.1046 21 19V5C21 3.89543 20.1046 3 19 3H5ZM9 7V17.1818H10.8445V13.7415H12.7933C13.5788 13.7415 14.2401 13.5973 14.777 13.3089C15.3139 13.0173 15.7199 12.6179 15.995 12.1108C16.2701 11.6037 16.4077 11.0237 16.4077 10.3707C16.4077 9.72443 16.2701 9.14773 15.995 8.64062C15.7232 8.13021 15.3205 7.72917 14.7869 7.4375C14.2566 7.14583 13.6004 7 12.8182 7H9Z" fill="#23449B"/>
</svg>
