<svg width="44" height="52" viewBox="0 0 44 52" fill="none" xmlns="http://www.w3.org/2000/svg">
<path fill-rule="evenodd" clip-rule="evenodd" d="M21.5934 0.0659786C21.8573 -0.0219929 22.1427 -0.0219929 22.4066 0.0659786L43.1209 6.97074C43.6459 7.14574 44 7.63707 44 8.19048V29.2638C44 41.4153 34.1516 51.2638 22 51.2638C9.84844 51.2638 0 41.4153 0 29.2638V8.19048C0 7.63707 0.354124 7.14574 0.879135 6.97074L21.5934 0.0659786ZM22 47.1388C31.8714 47.1388 39.875 39.1351 39.875 29.2638V11.2675C39.875 10.7222 39.531 10.2363 39.0168 10.055L22.4275 4.20618C22.1508 4.10864 21.8492 4.10864 21.5725 4.20618L4.98321 10.055C4.46896 10.2363 4.125 10.7222 4.125 11.2675V29.2638C4.125 39.1351 12.1286 47.1388 22 47.1388ZM13.8534 23.0343C14.1037 23.1383 14.3309 23.2907 14.522 23.4827L20.5148 29.4754L31.784 18.2119C31.9648 18.0307 32.1796 17.887 32.416 17.7889C32.6525 17.6909 32.9059 17.6404 33.1619 17.6404C33.4178 17.6404 33.6713 17.6909 33.9077 17.7889C34.1442 17.887 34.3589 18.0307 34.5397 18.2119L34.7002 18.3723C34.8813 18.5531 35.0251 18.7679 35.1231 19.0043C35.2212 19.2408 35.2717 19.4942 35.2717 19.7502C35.2717 20.0061 35.2212 20.2596 35.1231 20.496C35.0251 20.7325 34.8813 20.9472 34.7002 21.128L21.8955 33.9327C21.7147 34.1139 21.4999 34.2576 21.2635 34.3557C21.027 34.4537 20.7736 34.5042 20.5176 34.5042C20.2617 34.5042 20.0082 34.4537 19.7718 34.3557C19.5353 34.2576 19.3206 34.1139 19.1398 33.9327L19.0194 33.8124L11.6059 26.3989C11.4139 26.2077 11.2615 25.9805 11.1575 25.7303C11.0535 25.4801 11 25.2118 11 24.9408C11 24.6698 11.0535 24.4015 11.1575 24.1513C11.2615 23.9011 11.4139 23.6739 11.6059 23.4827C11.7971 23.2907 12.0243 23.1383 12.2745 23.0343C12.5247 22.9304 12.793 22.8768 13.064 22.8768C13.3349 22.8768 13.6032 22.9304 13.8534 23.0343Z" fill="#23449B"/>
</svg>
