<svg width="44" height="56" viewBox="0 0 44 56" fill="none" xmlns="http://www.w3.org/2000/svg">
<path fill-rule="evenodd" clip-rule="evenodd" d="M38 4H6C5.46957 4 4.96086 4.21071 4.58579 4.58579C4.21071 4.96086 4 5.46957 4 6V50C4 50.5304 4.21071 51.0391 4.58579 51.4142C4.96086 51.7893 5.46957 52 6 52H38C38.5304 52 39.0391 51.7893 39.4142 51.4142C39.7893 51.0391 40 50.5304 40 50V6C40 5.46957 39.7893 4.96086 39.4142 4.58579C39.0391 4.21071 38.5304 4 38 4ZM6 0H38C39.5913 0 41.1174 0.632141 42.2426 1.75736C43.3679 2.88258 44 4.4087 44 6V50C44 51.5913 43.3679 53.1174 42.2426 54.2426C41.1174 55.3679 39.5913 56 38 56H6C4.4087 56 2.88258 55.3679 1.75736 54.2426C0.632141 53.1174 0 51.5913 0 50V6C0 4.4087 0.632141 2.88258 1.75736 1.75736C2.88258 0.632141 4.4087 0 6 0ZM13.1131 24.8838C13.3861 24.9972 13.6339 25.1635 13.8425 25.373L20.38 31.9105L32.6737 19.623C32.871 19.4253 33.1053 19.2685 33.3632 19.1616C33.6211 19.0546 33.8976 18.9995 34.1768 18.9995C34.4561 18.9995 34.7326 19.0546 34.9905 19.1616C35.2484 19.2685 35.4827 19.4253 35.68 19.623L35.855 19.798C36.0526 19.9952 36.2094 20.2295 36.3164 20.4874C36.4234 20.7454 36.4784 21.0218 36.4784 21.3011C36.4784 21.5803 36.4234 21.8568 36.3164 22.1147C36.2094 22.3726 36.0526 22.6069 35.855 22.8042L21.8862 36.7729C21.689 36.9706 21.4547 37.1274 21.1967 37.2344C20.9388 37.3413 20.6623 37.3964 20.3831 37.3964C20.1039 37.3964 19.8274 37.3413 19.5695 37.2344C19.3115 37.1274 19.0772 36.9706 18.88 36.7729L18.7487 36.6417L10.6612 28.5542C10.4517 28.3457 10.2855 28.0978 10.1721 27.8248C10.0586 27.5519 10.0002 27.2592 10.0002 26.9636C10.0002 26.668 10.0586 26.3753 10.1721 26.1023C10.2855 25.8294 10.4517 25.5815 10.6612 25.373C10.8698 25.1635 11.1176 24.9972 11.3906 24.8838C11.6636 24.7704 11.9563 24.712 12.2519 24.712C12.5474 24.712 12.8401 24.7704 13.1131 24.8838Z" fill="#23449B"/>
</svg>
