<svg width="24" height="24" viewBox="0 0 24 24" fill="none" xmlns="http://www.w3.org/2000/svg">
<path fill-rule="evenodd" clip-rule="evenodd" d="M18 3H6C5.46957 3 4.96086 3.21071 4.58579 3.58579C4.21071 3.96086 4 4.46957 4 5V19C4 19.5304 4.21071 20.0391 4.58579 20.4142C4.96086 20.7893 5.46957 21 6 21H18C18.5304 21 19.0391 20.7893 19.4142 20.4142C19.7893 20.0391 20 19.5304 20 19V5C20 4.46957 19.7893 3.96086 19.4142 3.58579C19.0391 3.21071 18.5304 3 18 3ZM5.29289 4.29289C5.48043 4.10536 5.73478 4 6 4C6.26522 4 6.51957 4.10536 6.70711 4.29289C6.89464 4.48043 7 4.73478 7 5C7 5.26522 6.89464 5.51957 6.70711 5.70711C6.51957 5.89464 6.26522 6 6 6C5.73478 6 5.48043 5.89464 5.29289 5.70711C5.10536 5.51957 5 5.26522 5 5C5 4.73478 5.10536 4.48043 5.29289 4.29289ZM8.29289 4.29289C8.48043 4.10536 8.73478 4 9 4C9.26522 4 9.51957 4.10536 9.70711 4.29289C9.89464 4.48043 10 4.73478 10 5C10 5.26522 9.89464 5.51957 9.70711 5.70711C9.51957 5.89464 9.26522 6 9 6C8.73478 6 8.48043 5.89464 8.29289 5.70711C8.10536 5.51957 8 5.26522 8 5C8 4.73478 8.10536 4.48043 8.29289 4.29289ZM7.75736 8.75736C8.88258 7.63214 10.4087 7 12 7C13.5913 7 15.1174 7.63214 16.2426 8.75736C17.3679 9.88258 18 11.4087 18 13C18 14.5913 17.3679 16.1174 16.2426 17.2426C15.1174 18.3679 13.5913 19 12 19C10.4087 19 8.88258 18.3679 7.75736 17.2426C6.63214 16.1174 6 14.5913 6 13C6 11.4087 6.63214 9.88258 7.75736 8.75736ZM15.7885 14.1711C15.3365 15.5211 14.1645 16.5751 12.7655 16.8361C12.1741 16.9503 11.5645 16.9296 10.9822 16.7757C10.3999 16.6218 9.85981 16.3385 9.40209 15.947C8.94437 15.5555 8.58083 15.0658 8.3385 14.5144C8.09618 13.963 7.98132 13.364 8.00247 12.7621L8.01547 12.7531C8.54947 12.9611 9.18647 13.1071 9.99947 13.1071C11.8265 13.1071 12.8055 12.3901 13.5915 11.8131C14.0725 11.4601 14.4875 11.1611 15.0915 11.0121C15.1989 10.9876 15.3115 11.0006 15.4105 11.049C15.5094 11.0974 15.5889 11.1782 15.6355 11.2781C16.0609 12.1858 16.1158 13.2236 15.7885 14.1711Z" fill="#23449B"/>
</svg>
